<?xml version="1.0" encoding="utf-8"?>
<!-- Generator: Adobe Illustrator 22.0.1, SVG Export Plug-In . SVG Version: 6.00 Build 0)  -->
<svg version="1.1" id="Layer_1" xmlns="http://www.w3.org/2000/svg" xmlns:xlink="http://www.w3.org/1999/xlink" x="0px" y="0px"
	 viewBox="0 0 327 125" style="enable-background:new 0 0 327 125;" xml:space="preserve">
<style type="text/css">
	.st0{fill:#FFFFFF;}
</style>
<g id="Final_Logo">
	<g id="Logo-on-White" transform="translate(-136.000000, -359.000000)">
		<g id="Group" transform="translate(136.000000, 358.000000)">
			<path id="CA----" class="st0" d="M46.4,40.6c-1.5-1-3.3-1.8-5.6-2.5c-2.2-0.7-4.9-1.1-8-1.1c-2.6,0-5,0.4-7.3,1.3
				c-2.3,0.8-4.3,2-5.9,3.6c-1.6,1.6-3,3.5-4,5.7s-1.5,4.6-1.5,7.3s0.5,5.1,1.5,7.3c1,2.2,2.3,4,4,5.6s3.7,2.8,6.1,3.6
				c2.4,0.8,4.9,1.3,7.5,1.3c3.1,0,5.8-0.3,8.2-0.9c2.4-0.6,4.3-1.4,5.8-2.5L46,81.7c-1.6,1-3.6,1.7-6.1,2.2
				c-2.4,0.5-5.4,0.8-8.8,0.8c-3.8,0-7.5-0.6-11.2-1.9s-7-3.2-10-5.7c-2.9-2.5-5.3-5.6-7.2-9.3s-2.8-8-2.8-12.9s0.9-9.3,2.8-13
				c1.9-3.7,4.2-6.8,7.2-9.3c2.9-2.5,6.3-4.4,10-5.6c3.7-1.3,7.4-1.9,11.2-1.9c3.6,0,6.7,0.3,9.5,1c2.7,0.7,5,1.5,6.7,2.5L46.4,40.6
				z M79.5,49.7c-0.3-0.8-0.6-1.8-0.9-2.8l-0.9-3h-0.2c-0.2,1-0.5,2-0.8,3s-0.6,1.9-0.9,2.8l-4.1,11.4h12L79.5,49.7z M91.5,83.4
				L87,71.5H68.2l-4.4,11.9h-13L73.2,26h9.6l22.4,57.4H91.5z"/>
			<path id="LOUNGE" class="st0" d="M102.9,124.9V97.7h2.9v24.7h12.7v2.5C118.5,124.9,102.9,124.9,102.9,124.9z M144.1,111.2
				c0-1.8-0.3-3.4-0.9-4.8s-1.5-2.6-2.5-3.6c-1.1-1-2.3-1.8-3.6-2.3s-2.8-0.8-4.3-0.8s-2.9,0.3-4.3,0.8s-2.6,1.3-3.6,2.3
				s-1.9,2.2-2.5,3.6s-0.9,3-0.9,4.8c0,1.7,0.3,3.3,0.9,4.8s1.5,2.7,2.5,3.7s2.2,1.8,3.6,2.3c1.4,0.6,2.8,0.8,4.3,0.8
				s2.9-0.3,4.3-0.8c1.4-0.6,2.6-1.3,3.6-2.3c1.1-1,1.9-2.2,2.5-3.7C143.8,114.5,144.1,113,144.1,111.2z M147,111.2
				c0,2.1-0.4,4.1-1.2,5.8s-1.8,3.2-3.1,4.5s-2.8,2.2-4.5,2.9c-1.7,0.7-3.5,1-5.4,1s-3.7-0.3-5.4-1s-3.2-1.6-4.5-2.9
				s-2.4-2.7-3.1-4.5s-1.2-3.7-1.2-5.8c0-2.1,0.4-4,1.2-5.7s1.8-3.2,3.1-4.4s2.8-2.2,4.5-2.9c1.7-0.7,3.5-1,5.4-1s3.7,0.3,5.4,1
				c1.7,0.7,3.2,1.6,4.5,2.9s2.4,2.7,3.1,4.4S147,109.1,147,111.2z M173,115.4c0,1.5-0.3,2.9-0.8,4.1s-1.2,2.3-2.2,3.1
				c-0.9,0.9-2.1,1.5-3.3,2c-1.3,0.5-2.7,0.7-4.3,0.7c-1.6,0-3-0.2-4.3-0.7s-2.4-1.1-3.4-2c-0.9-0.9-1.7-1.9-2.2-3.1
				s-0.8-2.6-0.8-4.1V97.7h2.9v17.5c0,2.4,0.7,4.2,2,5.6s3.3,2,5.8,2s4.4-0.7,5.8-2s2-3.2,2-5.6V97.7h2.8V115.4z M201.7,125.5
				l-13.4-15.3c-1.2-1.3-2.3-2.7-3.5-4.1s-2.2-2.6-3.2-3.8h-0.1c0.1,1.3,0.1,2.5,0.1,3.8v18.8h-2.9V97.7h2l12.6,14.4
				c0.9,1.1,2,2.3,3.1,3.6s2.2,2.6,3.1,3.7h0.1c-0.1-1.2-0.1-2.4-0.1-3.6v-18h2.9v27.8L201.7,125.5L201.7,125.5z M231.7,122.4
				c-1.2,0.9-2.7,1.7-4.3,2.2c-1.7,0.5-3.5,0.8-5.6,0.8c-1.9,0-3.7-0.3-5.5-1c-1.7-0.7-3.3-1.6-4.6-2.8s-2.4-2.7-3.2-4.4
				c-0.8-1.7-1.2-3.7-1.2-5.9c0-2.2,0.4-4.2,1.2-5.9s1.9-3.2,3.2-4.4c1.3-1.2,2.9-2.1,4.6-2.8c1.7-0.6,3.5-1,5.3-1s3.4,0.2,4.9,0.6
				c1.4,0.4,2.7,0.9,3.7,1.5l-0.6,2.5c-1-0.7-2.2-1.2-3.5-1.6s-2.7-0.6-4.2-0.6s-3,0.3-4.5,0.8s-2.7,1.3-3.8,2.3
				c-1.1,1-1.9,2.2-2.6,3.7c-0.7,1.4-1,3.1-1,4.9s0.3,3.4,1,4.8c0.6,1.4,1.5,2.6,2.6,3.6s2.4,1.8,3.8,2.3s2.9,0.8,4.5,0.8
				c1.5,0,2.9-0.2,4.1-0.6s2.2-0.8,2.9-1.3v-6.7h-7.2v-2.3h9.9v10.5H231.7z M237.2,124.9V97.7h14.2v2.5H240v9.8h9.3v2.5H240v10h12.8
				v2.5L237.2,124.9L237.2,124.9z"/>
			<path id="UAL" class="st0" d="M225.4,63.7c0,3.2-0.7,6-2,8.6c-1.3,2.6-3.1,4.7-5.3,6.5c-2.2,1.8-4.9,3.2-7.9,4.2
				s-6.2,1.5-9.6,1.5S194,84,191,83s-5.6-2.4-7.8-4.2c-2.2-1.8-4-4-5.3-6.5c-1.3-2.6-2-5.4-2-8.6V26.2h13.8v36.3c0,2.9,1,5.3,3,7.1
				s4.7,2.7,8,2.7s6-0.9,8-2.7s3-4.2,3-7.1V26.2h13.5v37.5H225.4z M256.8,49.4c-0.3-0.8-0.6-1.8-0.9-2.8l-0.9-3h-0.2
				c-0.2,1-0.5,2-0.8,3s-0.6,1.9-0.9,2.8L249,60.8h12L256.8,49.4z M268.8,83.2l-4.5-11.9h-18.8l-4.4,11.9h-13l22.4-57.4h9.6
				l22.4,57.4C282.5,83.2,268.8,83.2,268.8,83.2z M289.3,83.2v-57h13.8v45.1H326v11.9C326,83.2,289.3,83.2,289.3,83.2z"/>
			<path id="THE" class="st0" d="M62.5,2.8v16.1h-1.9V2.8h-6.1V1.2h14.1v1.6H62.5z M82.8,18.9v-8.1H72.6v8.1h-1.9V1.1h1.9v8h10.2v-8
				h1.9v17.8C84.7,18.9,82.8,18.9,82.8,18.9z M88.5,18.9V1.1h9.3v1.6h-7.4v6.4h6.1v1.6h-6.1v6.5h8.4v1.6L88.5,18.9L88.5,18.9z"/>
			<g id="Group-9" transform="translate(104.000000, 22.000000)">
				<g id="Group-3" transform="translate(23.538462, 5.076923)">
					<g id="Clip-2">
					</g>
					<path id="Fill-1" class="st0" d="M0,13.3c0,5.2,9,7.8,14.4,10.3C24,28,32.3,31,32.3,39.1S23.2,55.3,6.8,60.3
						c0.9,0.1,1.8,0.1,2.8,0.1c18.2,0,32.9-14.7,32.9-32.9c0-11.8-6.1-21.7-15.4-27.5C18.9,1,0,4.9,0,13.3z"/>
				</g>
				<g id="Group-6">
					<g id="Clip-5">
					</g>
					<path id="Fill-4" class="st0" d="M42.9,46.9c0-5-4.3-7.4-13.5-11c-10.8-4.3-18.8-8.4-18.8-15.5c0-8.4,11.6-16,25.2-20.2
						c-0.9-0.1-1.9-0.1-2.9-0.1c-18.2,0-33,14.8-33,32.9c0,11.6,6,21.8,15.1,27.7C27.7,58.6,42.9,54.4,42.9,46.9"/>
				</g>
			</g>
		</g>
	</g>
</g>
</svg>
