<?xml version="1.0" encoding="utf-8"?>
<!-- Generator: Adobe Illustrator 21.0.0, SVG Export Plug-In . SVG Version: 6.00 Build 0)  -->
<svg version="1.1" id="Слой_1" xmlns="http://www.w3.org/2000/svg" xmlns:xlink="http://www.w3.org/1999/xlink" x="0px" y="0px"
	 viewBox="0 0 327 125" style="enable-background:new 0 0 327 125;" xml:space="preserve">
<style type="text/css">
	.st0{fill:#DA0E67;}
	.st1{filter:url(#Adobe_OpacityMaskFilter);}
	.st2{fill:#FFFFFF;}
	.st3{mask:url(#mask-2);fill:#DA0E67;}
	.st4{filter:url(#Adobe_OpacityMaskFilter_1_);}
	.st5{mask:url(#mask-4);fill:#DA0E67;}
</style>
<title>Group</title>
<desc>Created with Sketch.</desc>
<g id="Final_Logo">
	<g id="Logo-on-Pink" transform="translate(-136.000000, -359.000000)">
		<g id="Group" transform="translate(136.000000, 358.000000)">
			<path id="CA----" class="st0" d="M46.4,40.6c-1.5-1-3.3-1.8-5.6-2.5s-4.9-1.1-8-1.1c-2.6,0-5,0.4-7.3,1.3c-2.3,0.8-4.3,2-5.9,3.6
				s-3,3.5-4,5.7s-1.5,4.6-1.5,7.3s0.5,5.1,1.5,7.3c1,2.2,2.3,4,4,5.6c1.7,1.6,3.7,2.8,6.1,3.6s4.9,1.3,7.5,1.3
				c3.1,0,5.8-0.3,8.2-0.9c2.4-0.6,4.3-1.4,5.8-2.5l-1.2,12.4c-1.6,1-3.6,1.7-6.1,2.2c-2.4,0.5-5.4,0.8-8.8,0.8
				c-3.8,0-7.5-0.6-11.2-1.9c-3.7-1.3-7-3.2-10-5.7s-5.3-5.6-7.2-9.3s-2.8-8-2.8-12.9c0-4.9,0.9-9.3,2.8-13s4.2-6.8,7.2-9.3
				s6.3-4.4,10-5.6c3.7-1.3,7.4-1.9,11.2-1.9c3.6,0,6.7,0.3,9.5,1c2.7,0.7,5,1.5,6.7,2.5L46.4,40.6z M79.5,49.7
				c-0.3-0.8-0.6-1.8-0.9-2.8l-0.9-3h-0.2c-0.2,1-0.5,2-0.8,3c-0.3,1-0.6,1.9-0.9,2.8l-4.1,11.4h12L79.5,49.7z M91.5,83.4L87,71.5
				H68.2l-4.4,11.9h-13L73.2,26h9.6l22.4,57.4H91.5z"/>
			<path id="LOUNGE" class="st0" d="M102.9,124.9V97.7h2.9v24.7h12.7v2.5H102.9z M144.1,111.2c0-1.8-0.3-3.4-0.9-4.8
				c-0.6-1.4-1.5-2.6-2.5-3.6c-1.1-1-2.3-1.8-3.6-2.3s-2.8-0.8-4.3-0.8c-1.5,0-2.9,0.3-4.3,0.8c-1.4,0.6-2.6,1.3-3.6,2.3
				c-1,1-1.9,2.2-2.5,3.6c-0.6,1.4-0.9,3-0.9,4.8c0,1.7,0.3,3.3,0.9,4.8c0.6,1.4,1.5,2.7,2.5,3.7c1,1,2.2,1.8,3.6,2.3
				c1.4,0.6,2.8,0.8,4.3,0.8c1.5,0,2.9-0.3,4.3-0.8c1.4-0.6,2.6-1.3,3.6-2.3c1.1-1,1.9-2.2,2.5-3.7S144.1,113,144.1,111.2z
				 M147,111.2c0,2.1-0.4,4.1-1.2,5.8s-1.8,3.2-3.1,4.5s-2.8,2.2-4.5,2.9c-1.7,0.7-3.5,1-5.4,1s-3.7-0.3-5.4-1
				c-1.7-0.7-3.2-1.6-4.5-2.9s-2.4-2.7-3.1-4.5s-1.2-3.7-1.2-5.8c0-2.1,0.4-4,1.2-5.7s1.8-3.2,3.1-4.4s2.8-2.2,4.5-2.9
				c1.7-0.7,3.5-1,5.4-1s3.7,0.3,5.4,1c1.7,0.7,3.2,1.6,4.5,2.9s2.4,2.7,3.1,4.4S147,109.1,147,111.2z M173,115.4
				c0,1.5-0.3,2.9-0.8,4.1s-1.2,2.3-2.2,3.1c-0.9,0.9-2.1,1.5-3.3,2c-1.3,0.5-2.7,0.7-4.3,0.7c-1.6,0-3-0.2-4.3-0.7
				c-1.3-0.5-2.4-1.1-3.4-2c-0.9-0.9-1.7-1.9-2.2-3.1c-0.5-1.2-0.8-2.6-0.8-4.1V97.7h2.9v17.5c0,2.4,0.7,4.2,2,5.6s3.3,2,5.8,2
				c2.5,0,4.4-0.7,5.8-2s2-3.2,2-5.6V97.7h2.8V115.4z M201.7,125.5l-13.4-15.3c-1.2-1.3-2.3-2.7-3.5-4.1c-1.2-1.4-2.2-2.6-3.2-3.8
				l-0.1,0c0.1,1.3,0.1,2.5,0.1,3.8v18.8h-2.9V97.7h2l12.6,14.4c0.9,1.1,2,2.3,3.1,3.6c1.1,1.3,2.2,2.6,3.1,3.7l0.1,0
				c-0.1-1.2-0.1-2.4-0.1-3.6v-18h2.9v27.8H201.7z M231.7,122.4c-1.2,0.9-2.7,1.7-4.3,2.2c-1.7,0.5-3.5,0.8-5.6,0.8
				c-1.9,0-3.7-0.3-5.5-1c-1.7-0.7-3.3-1.6-4.6-2.8s-2.4-2.7-3.2-4.4s-1.2-3.7-1.2-5.9c0-2.2,0.4-4.2,1.2-5.9s1.9-3.2,3.2-4.4
				s2.9-2.1,4.6-2.8c1.7-0.6,3.5-1,5.3-1c1.8,0,3.4,0.2,4.9,0.6c1.4,0.4,2.7,0.9,3.7,1.5l-0.6,2.5c-1-0.7-2.2-1.2-3.5-1.6
				s-2.7-0.6-4.2-0.6c-1.5,0-3,0.3-4.5,0.8s-2.7,1.3-3.8,2.3c-1.1,1-1.9,2.2-2.6,3.7c-0.7,1.4-1,3.1-1,4.9c0,1.8,0.3,3.4,1,4.8
				c0.6,1.4,1.5,2.6,2.6,3.6c1.1,1,2.4,1.8,3.8,2.3s2.9,0.8,4.5,0.8c1.5,0,2.9-0.2,4.1-0.6c1.2-0.4,2.2-0.8,2.9-1.3v-6.7h-7.2v-2.3
				h9.9V122.4z M237.2,124.9V97.7h14.2v2.5H240v9.8h9.3v2.5H240v10h12.8v2.5H237.2z"/>
			<path id="UAL" class="st0" d="M225.4,63.7c0,3.2-0.7,6-2,8.6c-1.3,2.6-3.1,4.7-5.3,6.5s-4.9,3.2-7.9,4.2c-3,1-6.2,1.5-9.6,1.5
				c-3.4,0-6.6-0.5-9.6-1.5c-3-1-5.6-2.4-7.8-4.2s-4-4-5.3-6.5c-1.3-2.6-2-5.4-2-8.6V26.2h13.8v36.3c0,2.9,1,5.3,3,7.1
				c2,1.8,4.7,2.7,8,2.7c3.3,0,6-0.9,8-2.7s3-4.2,3-7.1V26.2h13.5V63.7z M256.8,49.4c-0.3-0.8-0.6-1.8-0.9-2.8l-0.9-3h-0.2
				c-0.2,1-0.5,2-0.8,3s-0.6,1.9-0.9,2.8L249,60.8h12L256.8,49.4z M268.8,83.2l-4.5-11.9h-18.8l-4.4,11.9h-13l22.4-57.4h9.6
				l22.4,57.4H268.8z M289.3,83.2v-57h13.8v45.1H326v11.9H289.3z"/>
			<path id="THE" class="st0" d="M62.5,2.8v16.1h-1.9V2.8h-6.1V1.2h14.1v1.6H62.5z M82.8,18.9v-8.1H72.6v8.1h-1.9V1.2h1.9v8h10.2v-8
				h1.9v17.8H82.8z M88.5,18.9V1.2h9.3v1.6h-7.4v6.4h6.1v1.6h-6.1v6.5h8.4v1.6H88.5z"/>
			<g id="Group-9" transform="translate(104.000000, 22.000000)">
				<g id="Group-3" transform="translate(24.000000, 5.000000)">
					<g id="Clip-2">
					</g>
					<defs>
						<filter id="Adobe_OpacityMaskFilter" filterUnits="userSpaceOnUse" x="0" y="0" width="42" height="60.5">
							<feColorMatrix  type="matrix" values="1 0 0 0 0  0 1 0 0 0  0 0 1 0 0  0 0 0 1 0"/>
						</filter>
					</defs>
					<mask maskUnits="userSpaceOnUse" x="0" y="0" width="42" height="60.5" id="mask-2">
						<g class="st1">
							<polygon id="path-1" class="st2" points="42,60.9 0,60.9 0,0 42,0 							"/>
						</g>
					</mask>
					<path id="Fill-1" class="st3" d="M0,13.3c0,5.2,8.9,7.9,14.3,10.4C23.7,28,32,31.1,32,39.2c0,8.1-9,16.2-25.2,21.2
						c0.9,0.1,1.8,0.1,2.7,0.1c18,0,32.5-14.7,32.5-32.9C42,15.8,36,5.8,26.7,0C18.7,1,0,4.9,0,13.3z"/>
				</g>
				<g id="Group-6">
					<g id="Clip-5">
					</g>
					<defs>
						<filter id="Adobe_OpacityMaskFilter_1_" filterUnits="userSpaceOnUse" x="0" y="0.1" width="42.9" height="60.7">
							<feColorMatrix  type="matrix" values="1 0 0 0 0  0 1 0 0 0  0 0 1 0 0  0 0 0 1 0"/>
						</filter>
					</defs>
					<mask maskUnits="userSpaceOnUse" x="0" y="0.1" width="42.9" height="60.7" id="mask-4">
						<g class="st4">
							<polygon id="path-3" class="st2" points="0,60.8 0,0.1 42.9,0.1 42.9,60.8 							"/>
						</g>
					</mask>
					<path id="Fill-4" class="st5" d="M42.9,47c0-5-4.3-7.4-13.5-11.1c-10.9-4.3-18.8-8.4-18.8-15.5c0-8.4,11.6-16,25.2-20.2
						C34.9,0.2,34,0.1,33,0.1c-18.2,0-33,14.8-33,33c0,11.6,6,21.8,15.1,27.7C27.7,58.7,42.9,54.5,42.9,47"/>
				</g>
			</g>
		</g>
	</g>
</g>
</svg>
