<svg xmlns="http://www.w3.org/2000/svg" viewBox="0 0 990 588.69"><defs><style>.cls-1{fill:none;}.cls-2{fill:#fefff6;}.cls-3{fill:#98067a;}.cls-4{fill:#fff;}</style></defs><title>ico-cherotic</title><g id="Слой_2" data-name="Слой 2"><g id="Слой_1-2" data-name="Слой 1"><path class="cls-1" d="M378.58,334.94l131.82,24c176-17.6,242,4.4,242,4.4a70.93,70.93,0,0,0-4.4,13.2c43.63-6.23,79.42-16.39,116.62-24.91-43.4-5-81.12-17.73-118.82-34.49C623.13,334,490.3,336.71,378.58,334.94Z"/><path class="cls-1" d="M329.15,72.69a21,21,0,0,1,2.74,1.2A21,21,0,0,0,329.15,72.69Z"/><path class="cls-1" d="M605.69,375q15.25,2.06,30.11,3.71,11.76,1.23,23.05,1.81-11.29-.58-23.05-1.81Q621,377.06,605.69,375Z"/><path class="cls-1" d="M323,71.24a29.7,29.7,0,0,1,4.67,1A29.7,29.7,0,0,0,323,71.24Z"/><path class="cls-1" d="M635.8,259.91c37.4,19.8,72.6,39.6,110,57.2C710.6,299.51,673.2,277.51,635.8,259.91Z"/><path class="cls-1" d="M630.12,477.53a24,24,0,0,1-1.23,5.27A24,24,0,0,0,630.12,477.53Z"/><path class="cls-1" d="M681,381.11c-4.81,0-9.7-.1-14.64-.27Q673.75,381.1,681,381.11Z"/><path class="cls-1" d="M462,246.71c37.88-1.31,54-15,83.49-14.9-29.44-.12-45.61,13.59-83.49,14.9-1.86.07-3.68.11-5.47.12C458.32,246.82,460.14,246.78,462,246.71Z"/><path class="cls-1" d="M376.82,238.32c-18-.11-37.2,4.2-62.22,19.39h0C339.62,242.52,358.84,238.21,376.82,238.32Z"/><path class="cls-1" d="M574.75,370.46q-23.5-3.72-48-8.35Q551.24,366.75,574.75,370.46Z"/><path class="cls-1" d="M603.5,453.41l2.21-.12Z"/><path class="cls-1" d="M540.1,484.62a20,20,0,0,1,.1-2.68A20,20,0,0,0,540.1,484.62Z"/><path class="cls-1" d="M629.2,466.71a28.3,28.3,0,0,1,1,10.41,28.3,28.3,0,0,0-1-10.41c-2.78-10.21-11.05-13.37-21.16-13.45C618.15,453.34,626.42,456.5,629.2,466.71Z"/><path class="cls-1" d="M620.9,494.08a28.29,28.29,0,0,0,7.29-9.56A28.29,28.29,0,0,1,620.9,494.08Z"/><path class="cls-1" d="M596.25,505.31l-.8.16Z"/><path class="cls-1" d="M617,497.11a47.08,47.08,0,0,1-4.38,2.58A47.08,47.08,0,0,0,617,497.11Z"/><path class="cls-1" d="M608.77,501.49c-1.75.74-3.55,1.41-5.39,2C605.22,502.9,607,502.23,608.77,501.49Z"/><path class="cls-2" d="M510.4,358.91q8.25,1.65,16.4,3.2,24.44,4.63,48,8.35,15.68,2.48,30.94,4.54t30.11,3.71q11.76,1.23,23.05,1.81c2.51.13,5,.23,7.48.32,4.94.17,9.83.26,14.64.27s9.56-.06,14.23-.2a512.08,512.08,0,0,0,52.8-4.4,70.93,70.93,0,0,1,4.4-13.2S686.4,341.31,510.4,358.91Z"/><path class="cls-3" d="M987.8,336.91c-2.2,0-4.4,2.2-6.6,2.2-39.6,11-77,15.4-110,13.2-2.21-.21-4.4-.46-6.58-.71-37.2,8.52-73,18.68-116.62,24.91a512.08,512.08,0,0,1-52.8,4.4q-7,.21-14.23.2t-14.64-.27c-2.48-.09-5-.19-7.48-.32q-11.29-.58-23.05-1.81Q621,377.06,605.69,375t-30.94-4.54q-23.52-3.72-48-8.35-8.14-1.56-16.4-3.2l-131.82-24-13.38-.23c-55-2.2-103.4-6.6-143-8.8h0c-39,19.49-101.41,32.58-216.67,30.89L0,356.71c239.8,96.8,382.8,303.6,743.6,206.8,138.6-37.4,167.2-178.2,246.4-226.6ZM628.89,482.8c-.21.58-.44,1.15-.7,1.72a28.29,28.29,0,0,1-7.29,9.56c-.74.65-1.51,1.28-2.31,1.88-.53.4-1.06.78-1.62,1.15a47.08,47.08,0,0,1-4.38,2.58c-1.24.65-2.51,1.25-3.82,1.8-1.75.74-3.55,1.41-5.39,2a66.52,66.52,0,0,1-7.13,1.83l-.8.16c-2,.36-3.91.64-5.85.84-19.8,2.2-44-4.4-48.4-15.4a21.39,21.39,0,0,1-1.1-6.29,20,20,0,0,1,.1-2.68,21.74,21.74,0,0,1,1.5-6,22.88,22.88,0,0,1,3.33-5.62,25.13,25.13,0,0,1,6.32-5.56,28.89,28.89,0,0,1,5.58-2.71,36.27,36.27,0,0,1,8.47-1.94c10.23-1.14,25.15-5.8,38.1-6.7l2.21-.12c.78,0,1.56,0,2.33,0,10.11.08,18.38,3.24,21.16,13.45a28.3,28.3,0,0,1,1,10.41c0,.13,0,.27,0,.41A24,24,0,0,1,628.89,482.8Z"/><path class="cls-2" d="M745.8,317.11c-37.4-17.6-72.6-37.4-110-57.2h0c-43.79-21.45-70.16-28-90.31-28.1-29.44-.12-45.61,13.59-83.49,14.9-1.86.07-3.68.11-5.47.12-32.29.21-54.82-8.37-79.71-8.51-18-.11-37.2,4.2-62.22,19.39h0c-33,22-50.6,48.4-92.4,68.2h0c39.6,2.2,88,6.6,143,8.8l13.38.23C490.3,336.71,623.13,334,745.8,317.11Z"/><path class="cls-4" d="M629.2,466.71c-2.78-10.21-11.05-13.37-21.16-13.45-.77,0-1.55,0-2.33,0l-2.21.12c-13,.9-27.87,5.56-38.1,6.7a36.27,36.27,0,0,0-8.47,1.94,28.89,28.89,0,0,0-5.58,2.71,25.13,25.13,0,0,0-6.32,5.56,22.88,22.88,0,0,0-3.33,5.62,21.74,21.74,0,0,0-1.5,6,20,20,0,0,0-.1,2.68,21.39,21.39,0,0,0,1.1,6.29c4.4,11,28.6,17.6,48.4,15.4,1.94-.2,3.9-.48,5.85-.84l.8-.16a66.52,66.52,0,0,0,7.13-1.83c1.84-.58,3.64-1.25,5.39-2,1.31-.55,2.58-1.15,3.82-1.8a47.08,47.08,0,0,0,4.38-2.58c.56-.37,1.09-.75,1.62-1.15.8-.6,1.57-1.23,2.31-1.88a28.29,28.29,0,0,0,7.29-9.56c.26-.57.49-1.14.7-1.72a24,24,0,0,0,1.23-5.27c0-.14,0-.28,0-.41A28.3,28.3,0,0,0,629.2,466.71Z"/><path class="cls-3" d="M222.2,325.91h0c41.8-19.8,59.4-46.2,92.4-68.2h0c25-15.19,44.24-19.5,62.22-19.39,24.89.14,47.42,8.72,79.71,8.51,1.79,0,3.61-.05,5.47-.12,37.88-1.31,54-15,83.49-14.9,20.15.09,46.52,6.65,90.31,28.1h0c37.4,17.6,74.8,39.6,110,57.2,37.7,16.76,75.42,29.51,118.82,34.49,2.18.25,4.37.5,6.58.71,33,2.2,70.4-2.2,110-13.2,2.2,0,4.4-2.2,6.6-2.2C836,281.91,770,13.51,587.4.31c-57.2-4.4-83.6,39.6-132,41.8S385,4.71,323.4,4.71s-112.2,66-182.6,173.8C37.4,339.11,0,356.71,0,356.71l5.53.09C120.79,358.49,183.22,345.4,222.2,325.91Zm61.6-244.2c1.1-.69,2.23-1.35,3.37-2,.58-.32,1.15-.63,1.74-.93q2.63-1.36,5.36-2.52a73,73,0,0,1,7.36-2.68A59.25,59.25,0,0,1,316.24,71a39.71,39.71,0,0,1,6.78.26,29.7,29.7,0,0,1,4.67,1c.5.15,1,.3,1.46.48a21,21,0,0,1,2.74,1.2,19,19,0,0,1,4.71,3.42,19.61,19.61,0,0,1,4.81,8c2.17,6.88.85,15.33-5.51,22.61a30.19,30.19,0,0,1-2.31,2.37,33.85,33.85,0,0,1-2.69,2.27c-1,.74-2,1.45-3.1,2.14-17.6,8.8-46.2,39.6-61.6,19.8C248.6,114.71,266.2,92.71,283.8,81.71Z"/><path class="cls-4" d="M327.8,114.71c1.1-.69,2.13-1.4,3.1-2.14a33.85,33.85,0,0,0,2.69-2.27,30.19,30.19,0,0,0,2.31-2.37c6.36-7.28,7.68-15.73,5.51-22.61a19.61,19.61,0,0,0-4.81-8,19,19,0,0,0-4.71-3.42,21,21,0,0,0-2.74-1.2c-.48-.18-1-.33-1.46-.48a29.7,29.7,0,0,0-4.67-1,39.71,39.71,0,0,0-6.78-.26,59.25,59.25,0,0,0-14.61,2.62,73,73,0,0,0-7.36,2.68q-2.73,1.16-5.36,2.52c-.59.3-1.16.61-1.74.93-1.14.63-2.27,1.29-3.37,2-17.6,11-35.2,33-17.6,52.8C281.6,154.31,310.2,123.51,327.8,114.71Z"/></g></g></svg>